<?xml version="1.0" encoding="UTF-8"?>
<svg version="1.1" xmlns="http://www.w3.org/2000/svg" width="612" height="408">
<path d="M0 0 C6.39085013 -0.44014119 11.57821234 1.1622004 17.625 3.125 C19.6804751 3.7724689 21.73647721 4.4182668 23.79296875 5.0625 C24.82856934 5.38863281 25.86416992 5.71476562 26.93115234 6.05078125 C31.57785597 7.48804328 36.25504072 8.80987286 40.9375 10.125 C47.53983953 11.9884948 54.09277357 13.94808398 60.62719727 16.0378418 C66.83251459 17.99696791 73.10190215 19.71019322 79.375 21.4375 C87.70128036 23.73116875 95.93436788 26.1712279 104.07958984 29.04663086 C108.25571661 30.50328773 112.39392401 31.56179929 116.71923828 32.47924805 C130.21690497 35.56108524 143.74446271 40.28306208 153 51 C153 51.66 153 52.32 153 53 C153.66 53 154.32 53 155 53 C155 53.66 155 54.32 155 55 C155.52722656 55.22429687 156.05445313 55.44859375 156.59765625 55.6796875 C159.8413697 57.46241132 162.58139672 59.79335031 165.4375 62.125 C174.5435775 69.40818522 184.10253472 75.7006094 195 80 C196.19109375 80.51240234 196.19109375 80.51240234 197.40625 81.03515625 C200.11179549 82.04158657 202.65549817 82.58708467 205.5 83.0625 C209.01229673 83.65939312 212.50950128 84.2854595 216 85 C216 84.34 216 83.68 216 83 C216.99 83 217.98 83 219 83 C219 82.34 219 81.68 219 81 C220.74553555 79.86330245 222.55011526 78.81687611 224.375 77.8125 C228.3132055 75.57916526 232.123602 73.3126517 235.8125 70.6875 C259.88768802 53.56224664 282.152253 44.94744385 311.265625 39.51074219 C316.43050725 38.54601597 321.58979625 37.55188814 326.75 36.5625 C327.84038574 36.35447754 328.93077148 36.14645508 330.05419922 35.93212891 C338.63523137 34.28674603 347.19034148 32.53168155 355.73339844 30.69946289 C373.96789309 26.82503619 373.96789309 26.82503619 381 27 C376.6644622 32.23254562 371.29579406 34.61753365 365 37 C364.34 37 363.68 37 363 37 C363 37.99 363 38.98 363 40 C357.78904316 43.31606344 352.70438749 45.16844314 346.76953125 46.875 C343.68716706 48.12707459 342.30241546 49.64743291 340 52 C334.61961619 54.63329963 329.05317596 56.6543974 323 56 C322.835 56.60972656 322.67 57.21945313 322.5 57.84765625 C320.17120111 61.18924008 316.77329647 61.53003323 313 62.4375 C311.36452115 62.86173951 309.72910631 63.28622585 308.09375 63.7109375 C307.25199219 63.92331055 306.41023438 64.13568359 305.54296875 64.35449219 C301.51562641 65.37679376 297.5074673 66.46531905 293.5 67.5625 C292.79617188 67.74804443 292.09234375 67.93358887 291.3671875 68.12475586 C281.9505389 70.68281314 273.43449023 74.62143903 264.9375 79.375 C263.68743164 80.05949219 263.68743164 80.05949219 262.41210938 80.7578125 C257.40028001 83.53479499 252.61632539 86.51513031 247.91235352 89.78759766 C246 91 246 91 243 92 C243.82725586 91.98428955 244.65451172 91.9685791 245.50683594 91.95239258 C249.25448777 91.89003696 253.00203045 91.85100654 256.75 91.8125 C258.05195313 91.78736328 259.35390625 91.76222656 260.6953125 91.73632812 C261.94570313 91.72666016 263.19609375 91.71699219 264.484375 91.70703125 C265.63647461 91.6913208 266.78857422 91.67561035 267.97558594 91.65942383 C271.32248632 92.03631485 272.68450044 92.58210267 275 95 C275.75 98.6875 275.75 98.6875 276 102 C275.47019531 101.67773438 274.94039063 101.35546875 274.39453125 101.0234375 C264.96572233 96.99350612 252.10158418 100.51363047 243 104 C240.35269532 105.52654796 238.00515619 107.1976537 235.58984375 109.06640625 C217.64396882 122.46491015 198.34301536 125.98944281 176.46240234 127.09033203 C169.85506934 127.51188934 164.84624345 128.91340441 159 132 C158.0925 132.4434375 157.185 132.886875 156.25 133.34375 C155.13625 133.91609375 155.13625 133.91609375 154 134.5 C146.03517006 138.51281508 137.84750813 141.9174725 129.59179688 145.27929688 C126.06103921 146.72073877 122.54842356 148.18529253 119.0703125 149.75 C112.96013591 152.48315426 107.72729814 154.73090807 101 155 C101 154.34 101 153.68 101 153 C102.55371094 151.85839844 102.55371094 151.85839844 104.734375 150.609375 C105.53053223 150.15006592 106.32668945 149.69075684 107.14697266 149.2175293 C108.00597168 148.73324463 108.8649707 148.24895996 109.75 147.75 C110.61802246 147.25346924 111.48604492 146.75693848 112.38037109 146.24536133 C117.97231215 143.0711216 123.62199815 140.13432442 129.4140625 137.34375 C132.8329553 135.56716522 135.94134459 133.45141612 139.0625 131.19921875 C141.0530698 129.96715236 142.71262804 129.43398798 145 129 C145 128.34 145 127.68 145 127 C134.90140014 128.97610565 124.84838569 131.09873465 114.8125 133.375 C114.14655823 133.52518585 113.48061646 133.6753717 112.79449463 133.83010864 C103.48366664 135.93073753 94.1992157 138.11669064 84.97583008 140.57763672 C81.23821802 141.55295418 77.87164254 142.25249843 74 142 C75 139 75 139 76.69555664 138.11206055 C77.42637451 137.87269775 78.15719238 137.63333496 78.91015625 137.38671875 C80.13641724 136.97341309 80.13641724 136.97341309 81.38745117 136.55175781 C82.27021729 136.26655273 83.1529834 135.98134766 84.0625 135.6875 C85.89376189 135.07320039 87.72448504 134.45729261 89.5546875 133.83984375 C90.47217773 133.53288574 91.38966797 133.22592773 92.33496094 132.90966797 C96.15165672 131.60690061 99.92095979 130.1903235 103.6875 128.75 C109.08424175 126.68636943 114.51197641 124.80080146 120 123 C121.69547766 122.43930126 123.39078549 121.87808875 125.0859375 121.31640625 C125.94936768 121.03031494 126.81279785 120.74422363 127.70239258 120.44946289 C135.84569708 117.74693021 143.97051067 115.02751237 152 112 C152.29435872 104.48796534 151.92358059 99.17734315 146.75 93.4375 C144.33911082 91.03874617 141.89909316 88.92234683 139.203125 86.84765625 C138.47609375 86.23792969 137.7490625 85.62820312 137 85 C137 84.34 137 83.68 137 83 C136.45085937 82.75378906 135.90171875 82.50757813 135.3359375 82.25390625 C132.51829246 80.74142455 130.1511241 78.89957173 127.625 76.9375 C116.62074307 68.59924038 106.14416825 62.15839076 93.02783203 57.69726562 C89.68315675 56.54720632 86.37318377 55.30645514 83.0625 54.0625 C82.41539062 53.81951172 81.76828125 53.57652344 81.1015625 53.32617188 C75.9233884 51.37031321 70.76385807 49.36945994 65.625 47.3125 C64.89289307 47.02705322 64.16078613 46.74160645 63.40649414 46.44750977 C59.82901062 44.99517982 58.19431965 44.29147948 56 41 C53.20545401 39.75035825 53.20545401 39.75035825 49.9375 38.6875 C44.11712309 36.54927052 38.67882109 34.15642845 34 30 C33.505 28.515 33.505 28.515 33 27 C30.73917394 25.71311324 28.54218079 24.58386312 26.1875 23.5 C17.420834 19.3903449 17.420834 19.3903449 15 17 C15 15.68 15 14.36 15 13 C13.68 12.34 12.36 11.68 11 11 C11 10.34 11 9.68 11 9 C10.41734375 8.9071875 9.8346875 8.814375 9.234375 8.71875 C6.48455228 7.83419164 5.23900991 6.57401034 3.25 4.5 C2.63640625 3.8709375 2.0228125 3.241875 1.390625 2.59375 C0 1 0 1 0 0 Z M220 87 C223.92416912 89.61611275 226.68231852 90 231.375 90 C235.01618693 90 238.41125743 90.41408285 242 91 C238.24729305 87.24729305 232.25286557 87.09768523 227.1171875 86.875 C224.74118212 86.875 222.37413064 86.90907585 220 87 Z M203 91 C203.66 91 204.32 91 205 91 C205 91.99 205 92.98 205 94 C203.35 94.33 201.7 94.66 200 95 C200.33 96.32 200.66 97.64 201 99 C199.824375 98.9071875 199.824375 98.9071875 198.625 98.8125 C197.325625 98.9053125 197.325625 98.9053125 196 99 C195.01 100.485 195.01 100.485 194 102 C195.65 102.33 197.3 102.66 199 103 C195.04 104.98 195.04 104.98 191 107 C192.27396229 109.54792457 193.11310216 109.58799022 195.75 110.5 C198.00593838 111.29216157 200.19183722 112.08613744 202.375 113.06640625 C208.19234227 115.13537173 215.10396112 115.14014151 220.84765625 112.87890625 C222.9894316 111.68073399 225.01264992 110.43787603 227 109 C226.55140625 108.6390625 226.1028125 108.278125 225.640625 107.90625 C223.42590852 105.33296038 222.78095958 102.72356376 221.75 99.5 C220.22249175 95.06018923 220.22249175 95.06018923 217.33203125 91.515625 C215.32007543 90.57525631 215.32007543 90.57525631 212 90 C210.9275 89.731875 209.855 89.46375 208.75 89.1875 C205.78270849 88.70429488 205.78270849 88.70429488 203 91 Z " fill="#DFB768" transform="translate(114,117)"/>
<path d="M0 0 C-4.3355378 5.23254562 -9.70420594 7.61753365 -16 10 C-16.66 10 -17.32 10 -18 10 C-18 10.99 -18 11.98 -18 13 C-23.21095684 16.31606344 -28.29561251 18.16844314 -34.23046875 19.875 C-37.31283294 21.12707459 -38.69758454 22.64743291 -41 25 C-46.38038381 27.63329963 -51.94682404 29.6543974 -58 29 C-58.165 29.60972656 -58.33 30.21945313 -58.5 30.84765625 C-60.82879889 34.18924008 -64.22670353 34.53003323 -68 35.4375 C-69.63547885 35.86173951 -71.27089369 36.28622585 -72.90625 36.7109375 C-73.74800781 36.92331055 -74.58976563 37.13568359 -75.45703125 37.35449219 C-79.48437359 38.37679376 -83.4925327 39.46531905 -87.5 40.5625 C-88.20382812 40.74804443 -88.90765625 40.93358887 -89.6328125 41.12475586 C-99.0494611 43.68281314 -107.56550977 47.62143903 -116.0625 52.375 C-116.89587891 52.83132812 -117.72925781 53.28765625 -118.58789062 53.7578125 C-123.59971999 56.53479499 -128.38367461 59.51513031 -133.08764648 62.78759766 C-135 64 -135 64 -138 65 C-137.17274414 64.98428955 -136.34548828 64.9685791 -135.49316406 64.95239258 C-131.74551223 64.89003696 -127.99796955 64.85100654 -124.25 64.8125 C-122.94804687 64.78736328 -121.64609375 64.76222656 -120.3046875 64.73632812 C-118.42910156 64.72182617 -118.42910156 64.72182617 -116.515625 64.70703125 C-115.36352539 64.6913208 -114.21142578 64.67561035 -113.02441406 64.65942383 C-109.67751368 65.03631485 -108.31549956 65.58210267 -106 68 C-105.25 71.6875 -105.25 71.6875 -105 75 C-105.52980469 74.67773438 -106.05960937 74.35546875 -106.60546875 74.0234375 C-116.03427767 69.99350612 -128.89841582 73.51363047 -138 77 C-140.64730468 78.52654796 -142.99484381 80.1976537 -145.41015625 82.06640625 C-163.46518013 95.54640146 -182.82046378 98.92010848 -204.80126953 100.17822266 C-210.3231624 100.54525594 -214.08385884 101.27483199 -219 104 C-219.99 103.67 -220.98 103.34 -222 103 C-220.02 102.505 -220.02 102.505 -218 102 C-218 101.34 -218 100.68 -218 100 C-217.34 100 -216.68 100 -216 100 C-216 99.01 -216 98.02 -216 97 C-210.43736106 96.21927875 -205.1210347 95.97759011 -199.5 96.0625 C-193.61037552 96.1157195 -188.67044024 95.5121174 -183 94 C-182.01 94 -181.02 94 -180 94 C-179.67 93.34 -179.34 92.68 -179 92 C-180.32 91.67 -181.64 91.34 -183 91 C-182.01 89.515 -182.01 89.515 -181 88 C-177.32012065 87.4364485 -173.71461454 87.14526037 -170.00390625 86.91601562 C-164.14083456 86.43471869 -160.12699016 84.90373013 -155 82 C-155.47091064 81.55922119 -155.94182129 81.11844238 -156.42700195 80.66430664 C-158.50722178 78.46333527 -159.19715888 76.28710222 -160.1875 73.4375 C-160.53167969 72.46683594 -160.87585938 71.49617188 -161.23046875 70.49609375 C-162 68 -162 68 -162 66 C-166.29 65.01 -170.58 64.02 -175 63 C-175.495 64.98 -175.495 64.98 -176 67 C-178.0625 68.25 -178.0625 68.25 -180 69 C-180 69.99 -180 70.98 -180 72 C-182.97 72.99 -182.97 72.99 -186 74 C-184.35 74.66 -182.7 75.32 -181 76 C-183.55991624 78.01136276 -186.04590299 79.62845496 -189 81 C-187.7625 81.433125 -186.525 81.86625 -185.25 82.3125 C-182.08403441 83.49131697 -179.56878575 84.75231247 -177 87 C-182.21979128 87.1799928 -186.07262981 86.97094808 -191 85 C-191 84.34 -191 83.68 -191 83 C-192.485 82.505 -192.485 82.505 -194 82 C-194 81.34 -194 80.68 -194 80 C-193.34 80 -192.68 80 -192 80 C-191.95101563 79.38511719 -191.90203125 78.77023438 -191.8515625 78.13671875 C-191.77679688 77.32847656 -191.70203125 76.52023438 -191.625 75.6875 C-191.55539062 74.88699219 -191.48578125 74.08648437 -191.4140625 73.26171875 C-191 71 -191 71 -189 68 C-187.7625 67.814375 -187.7625 67.814375 -186.5 67.625 C-185.675 67.41875 -184.85 67.2125 -184 67 C-182.84478498 64.52869082 -182.84478498 64.52869082 -182 62 C-178.49852959 60.8328432 -175.67329964 60.86642547 -172 61 C-171.01 61.495 -171.01 61.495 -170 62 C-170 61.34 -170 60.68 -170 60 C-171.43725871 59.83126522 -172.87481838 59.66509263 -174.3125 59.5 C-175.51326172 59.36078125 -175.51326172 59.36078125 -176.73828125 59.21875 C-179.11896555 58.95186537 -179.11896555 58.95186537 -182 59 C-181.67 58.01 -181.34 57.02 -181 56 C-175.36718401 55.7603057 -170.45461169 56.61470179 -165 58 C-165 57.34 -165 56.68 -165 56 C-164.01 56 -163.02 56 -162 56 C-162 55.34 -162 54.68 -162 54 C-160.25446445 52.86330245 -158.44988474 51.81687611 -156.625 50.8125 C-152.6867945 48.57916526 -148.876398 46.3126517 -145.1875 43.6875 C-121.11231198 26.56224664 -98.847747 17.94744385 -69.734375 12.51074219 C-64.56949275 11.54601597 -59.41020375 10.55188814 -54.25 9.5625 C-52.61442139 9.25046631 -52.61442139 9.25046631 -50.94580078 8.93212891 C-42.36476863 7.28674603 -33.80965852 5.53168155 -25.26660156 3.69946289 C-7.03210691 -0.17496381 -7.03210691 -0.17496381 0 0 Z M-161 60 C-157.07583088 62.61611275 -154.31768148 63 -149.625 63 C-145.98381307 63 -142.58874257 63.41408285 -139 64 C-142.75270695 60.24729305 -148.74713443 60.09768523 -153.8828125 59.875 C-156.25881788 59.875 -158.62586936 59.90907585 -161 60 Z " fill="#DBB362" transform="translate(495,144)"/>
<path d="M0 0 C0.99 0.495 0.99 0.495 2 1 C1.01 1.66 0.02 2.32 -1 3 C-1.33 3.99 -1.66 4.98 -2 6 C-2.66 6 -3.32 6 -4 6 C-3.505 7.98 -3.505 7.98 -3 10 C-0.03 10.495 -0.03 10.495 3 11 C1 13 1 13 -2.625 13.125 C-3.73875 13.08375 -4.8525 13.0425 -6 13 C-3.09221339 13.70491797 -0.69669823 13.98855465 2.3125 13.875 C6 14 6 14 9.33984375 15.5078125 C15.43412882 17.8943365 21.81629689 17.19898051 28.25 17 C30.75481924 16.92347803 33.26009454 16.86037638 35.765625 16.8125 C36.86680664 16.77769531 37.96798828 16.74289063 39.10253906 16.70703125 C42.3961622 17.04005685 43.71519721 17.63037542 46 20 C46.75 23.6875 46.75 23.6875 47 27 C46.47019531 26.67773438 45.94039063 26.35546875 45.39453125 26.0234375 C35.96572233 21.99350612 23.10158418 25.51363047 14 29 C11.35269532 30.52654796 9.00515619 32.1976537 6.58984375 34.06640625 C-11.46518013 47.54640146 -30.82046378 50.92010848 -52.80126953 52.17822266 C-58.3231624 52.54525594 -62.08385884 53.27483199 -67 56 C-67.99 55.67 -68.98 55.34 -70 55 C-68.02 54.505 -68.02 54.505 -66 54 C-66 53.34 -66 52.68 -66 52 C-65.34 52 -64.68 52 -64 52 C-64 51.01 -64 50.02 -64 49 C-58.43736106 48.21927875 -53.1210347 47.97759011 -47.5 48.0625 C-41.61037552 48.1157195 -36.67044024 47.5121174 -31 46 C-30.01 46 -29.02 46 -28 46 C-27.505 45.01 -27.505 45.01 -27 44 C-28.32 43.67 -29.64 43.34 -31 43 C-30.34 42.01 -29.68 41.02 -29 40 C-25.32012065 39.4364485 -21.71461454 39.14526037 -18.00390625 38.91601562 C-12.14083456 38.43471869 -8.12699016 36.90373013 -3 34 C-3.47091064 33.55922119 -3.94182129 33.11844238 -4.42700195 32.66430664 C-6.50722178 30.46333527 -7.19715888 28.28710222 -8.1875 25.4375 C-8.53167969 24.46683594 -8.87585938 23.49617188 -9.23046875 22.49609375 C-10 20 -10 20 -10 18 C-14.29 17.01 -18.58 16.02 -23 15 C-23.33 16.32 -23.66 17.64 -24 19 C-26.0625 20.25 -26.0625 20.25 -28 21 C-28 21.99 -28 22.98 -28 24 C-29.98 24.66 -31.96 25.32 -34 26 C-31.525 26.99 -31.525 26.99 -29 28 C-31.55991624 30.01136276 -34.04590299 31.62845496 -37 33 C-35.7625 33.433125 -34.525 33.86625 -33.25 34.3125 C-30.08403441 35.49131697 -27.56878575 36.75231247 -25 39 C-30.21979128 39.1799928 -34.07262981 38.97094808 -39 37 C-39 36.34 -39 35.68 -39 35 C-40.485 34.505 -40.485 34.505 -42 34 C-42 33.34 -42 32.68 -42 32 C-41.34 32 -40.68 32 -40 32 C-39.95101563 31.38511719 -39.90203125 30.77023438 -39.8515625 30.13671875 C-39.77679688 29.32847656 -39.70203125 28.52023438 -39.625 27.6875 C-39.55539062 26.88699219 -39.48578125 26.08648437 -39.4140625 25.26171875 C-39 23 -39 23 -37 20 C-36.175 19.87625 -35.35 19.7525 -34.5 19.625 C-33.2625 19.315625 -33.2625 19.315625 -32 19 C-30.84478498 16.52869082 -30.84478498 16.52869082 -30 14 C-26.49852959 12.8328432 -23.67329964 12.86642547 -20 13 C-19.34 13.33 -18.68 13.66 -18 14 C-18 13.34 -18 12.68 -18 12 C-19.43725871 11.83126522 -20.87481838 11.66509263 -22.3125 11.5 C-23.11300781 11.4071875 -23.91351563 11.314375 -24.73828125 11.21875 C-27.11896555 10.95186537 -27.11896555 10.95186537 -30 11 C-29.67 10.01 -29.34 9.02 -29 8 C-23.36718401 7.7603057 -18.45461169 8.61470179 -13 10 C-13 9.34 -13 8.68 -13 8 C-12.01 8 -11.02 8 -10 8 C-10 7.34 -10 6.68 -10 6 C-7.8828125 4.45703125 -7.8828125 4.45703125 -5.125 2.8125 C-4.22007812 2.26207031 -3.31515625 1.71164063 -2.3828125 1.14453125 C-1.59648437 0.76683594 -0.81015625 0.38914063 0 0 Z " fill="#D2A652" transform="translate(343,192)"/>
<path d="M0 0 C1.98 0 3.96 0 6 0 C6.21914063 0.56589844 6.43828125 1.13179687 6.6640625 1.71484375 C7.63742679 3.96624327 8.60598538 5.97931826 10 8 C13.6836616 9.27800504 15.31053944 9.22982019 19 8 C19.99 8.99 19.99 8.99 21 10 C20.70700977 11.67422986 20.37309899 13.34178227 20 15 C20.495 15.99 20.495 15.99 21 17 C20.34 17 19.68 17 19 17 C19.14049518 18.47968324 19.28754826 19.95874516 19.4375 21.4375 C19.51871094 22.26121094 19.59992188 23.08492187 19.68359375 23.93359375 C19.78930815 25.98662025 19.78930815 25.98662025 21 27 C21.04092937 29.33297433 21.04241723 31.66705225 21 34 C20.34 33.67 19.68 33.34 19 33 C18.01 33.495 18.01 33.495 17 34 C15.515 34.495 15.515 34.495 14 35 C13.67 36.65 13.34 38.3 13 40 C13.66 40.33 14.32 40.66 15 41 C14.3125 42.9375 14.3125 42.9375 13 45 C10.375 45.75 10.375 45.75 8 46 C8 45.34 8 44.68 8 44 C-2.09859986 45.97610565 -12.15161431 48.09873465 -22.1875 50.375 C-23.18641266 50.60027878 -23.18641266 50.60027878 -24.20550537 50.83010864 C-33.51633336 52.93073753 -42.8007843 55.11669064 -52.02416992 57.57763672 C-55.76178198 58.55295418 -59.12835746 59.25249843 -63 59 C-62 56 -62 56 -60.30444336 55.11206055 C-59.20821655 54.75301636 -59.20821655 54.75301636 -58.08984375 54.38671875 C-57.27233643 54.11118164 -56.4548291 53.83564453 -55.61254883 53.55175781 C-54.72978271 53.26655273 -53.8470166 52.98134766 -52.9375 52.6875 C-51.10623811 52.07320039 -49.27551496 51.45729261 -47.4453125 50.83984375 C-46.52782227 50.53288574 -45.61033203 50.22592773 -44.66503906 49.90966797 C-40.84834328 48.60690061 -37.07904021 47.1903235 -33.3125 45.75 C-27.91575825 43.68636943 -22.48802359 41.80080146 -17 40 C-15.30452234 39.43930126 -13.60921451 38.87808875 -11.9140625 38.31640625 C-11.05063232 38.03031494 -10.18720215 37.74422363 -9.29760742 37.44946289 C-1.15430292 34.74693021 6.97051067 32.02751237 15 29 C15.29435872 21.48796534 14.92358059 16.17734315 9.75 10.4375 C7.33911082 8.03874617 4.89909316 5.92234683 2.203125 3.84765625 C1.47609375 3.23792969 0.7490625 2.62820312 0 2 C0 1.34 0 0.68 0 0 Z " fill="#8F7545" transform="translate(251,200)"/>
<path d="M0 0 C1.98 0 3.96 0 6 0 C6.32871094 0.84884766 6.32871094 0.84884766 6.6640625 1.71484375 C7.63742679 3.96624327 8.60598538 5.97931826 10 8 C13.6836616 9.27800504 15.31053944 9.22982019 19 8 C19.66 8.66 20.32 9.32 21 10 C20.70700977 11.67422986 20.37309899 13.34178227 20 15 C20.33 15.66 20.66 16.32 21 17 C20.34 17 19.68 17 19 17 C19.14049518 18.47968324 19.28754826 19.95874516 19.4375 21.4375 C19.51871094 22.26121094 19.59992188 23.08492187 19.68359375 23.93359375 C19.78930815 25.98662025 19.78930815 25.98662025 21 27 C21.04092937 29.33297433 21.04241723 31.66705225 21 34 C20.34 33.67 19.68 33.34 19 33 C18.01 33.495 18.01 33.495 17 34 C15.515 34.495 15.515 34.495 14 35 C13.67 36.65 13.34 38.3 13 40 C13.66 40.33 14.32 40.66 15 41 C14.3125 42.9375 14.3125 42.9375 13 45 C10.375 45.75 10.375 45.75 8 46 C8 45.34 8 44.68 8 44 C3.71 43.67 -0.58 43.34 -5 43 C-4.505 40.03 -4.505 40.03 -4 37 C-1.525 36.505 -1.525 36.505 1 36 C1 35.34 1 34.68 1 34 C5.62 32.35 10.24 30.7 15 29 C15.08288329 21.2089711 15.08352908 16.35479843 9.75 10.4375 C7.33911082 8.03874617 4.89909316 5.92234683 2.203125 3.84765625 C1.47609375 3.23792969 0.7490625 2.62820312 0 2 C0 1.34 0 0.68 0 0 Z " fill="#B6934C" transform="translate(251,200)"/>
<path d="M0 0 C0.66 0.33 1.32 0.66 2 1 C1.01 1.66 0.02 2.32 -1 3 C-1.33 3.99 -1.66 4.98 -2 6 C-2.66 6 -3.32 6 -4 6 C-3.505 7.98 -3.505 7.98 -3 10 C-1.02 10.33 0.96 10.66 3 11 C1 13 1 13 -2.625 13.125 C-3.73875 13.08375 -4.8525 13.0425 -6 13 C-5.01 13.66 -4.02 14.32 -3 15 C-4.175625 14.9071875 -4.175625 14.9071875 -5.375 14.8125 C-6.674375 14.9053125 -6.674375 14.9053125 -8 15 C-8.66 15.99 -9.32 16.98 -10 18 C-14.29 17.01 -18.58 16.02 -23 15 C-23.33 16.32 -23.66 17.64 -24 19 C-26.0625 20.25 -26.0625 20.25 -28 21 C-28 21.99 -28 22.98 -28 24 C-29.98 24.66 -31.96 25.32 -34 26 C-31.525 26.99 -31.525 26.99 -29 28 C-31.55991624 30.01136276 -34.04590299 31.62845496 -37 33 C-35.7625 33.433125 -34.525 33.86625 -33.25 34.3125 C-30.08403441 35.49131697 -27.56878575 36.75231247 -25 39 C-30.21979128 39.1799928 -34.07262981 38.97094808 -39 37 C-39 36.34 -39 35.68 -39 35 C-39.99 34.67 -40.98 34.34 -42 34 C-42 33.34 -42 32.68 -42 32 C-41.34 32 -40.68 32 -40 32 C-39.95101563 31.38511719 -39.90203125 30.77023438 -39.8515625 30.13671875 C-39.77679688 29.32847656 -39.70203125 28.52023438 -39.625 27.6875 C-39.55539062 26.88699219 -39.48578125 26.08648437 -39.4140625 25.26171875 C-39 23 -39 23 -37 20 C-36.175 19.87625 -35.35 19.7525 -34.5 19.625 C-33.675 19.41875 -32.85 19.2125 -32 19 C-30.84478498 16.52869082 -30.84478498 16.52869082 -30 14 C-26.49852959 12.8328432 -23.67329964 12.86642547 -20 13 C-19.34 13.33 -18.68 13.66 -18 14 C-18 13.34 -18 12.68 -18 12 C-19.43725871 11.83126522 -20.87481838 11.66509263 -22.3125 11.5 C-23.11300781 11.4071875 -23.91351563 11.314375 -24.73828125 11.21875 C-27.11896555 10.95186537 -27.11896555 10.95186537 -30 11 C-29.67 10.01 -29.34 9.02 -29 8 C-23.36718401 7.7603057 -18.45461169 8.61470179 -13 10 C-13 9.34 -13 8.68 -13 8 C-12.01 8 -11.02 8 -10 8 C-10 7.34 -10 6.68 -10 6 C-7.8828125 4.45703125 -7.8828125 4.45703125 -5.125 2.8125 C-4.22007812 2.26207031 -3.31515625 1.71164063 -2.3828125 1.14453125 C-1.59648437 0.76683594 -0.81015625 0.38914063 0 0 Z " fill="#9A7F4C" transform="translate(343,192)"/>
<path d="M0 0 C2.97 0.495 2.97 0.495 6 1 C6 0.67 6 0.34 6 0 C7.65 0 9.3 0 11 0 C7.87133513 3.45231985 4.40996921 5.75034779 0.375 8 C-0.25108154 8.34957764 -0.87716309 8.69915527 -1.5222168 9.05932617 C-16.83714 17.47595384 -32.55875621 19.19131386 -49.80126953 20.17822266 C-55.3231624 20.54525594 -59.08385884 21.27483199 -64 24 C-64.99 23.67 -65.98 23.34 -67 23 C-65.68 22.67 -64.36 22.34 -63 22 C-63 21.34 -63 20.68 -63 20 C-62.34 20 -61.68 20 -61 20 C-61 19.01 -61 18.02 -61 17 C-55.43736106 16.21927875 -50.1210347 15.97759011 -44.5 16.0625 C-38.61037552 16.1157195 -33.67044024 15.5121174 -28 14 C-27.01 14 -26.02 14 -25 14 C-24.67 13.34 -24.34 12.68 -24 12 C-25.32 11.67 -26.64 11.34 -28 11 C-27.34 10.01 -26.68 9.02 -26 8 C-22.32012065 7.4364485 -18.71461454 7.14526037 -15.00390625 6.91601562 C-9.14083456 6.43471869 -5.12699016 4.90373013 0 2 C0 1.34 0 0.68 0 0 Z " fill="#CDA255" transform="translate(340,224)"/>
<path d="M0 0 C0.66 0.33 1.32 0.66 2 1 C0.35 2.98 -1.3 4.96 -3 7 C-2.48050781 6.69964844 -1.96101563 6.39929688 -1.42578125 6.08984375 C4.34133791 2.94511149 4.34133791 2.94511149 8 3.25 C8.66 3.4975 9.32 3.745 10 4 C10 3.34 10 2.68 10 2 C13 0 13 0 15.6875 0.375 C16.450625 0.58125 17.21375 0.7875 18 1 C15.33190911 4.32772959 11.80989417 5.43858244 7.9375 6.875 C3.61844026 8.53464107 -0.59388027 10.20347412 -4.6875 12.375 C-9.66985324 14.9457268 -14.81156226 17.07409696 -20 19.1875 C-20.83104248 19.53280762 -21.66208496 19.87811523 -22.51831055 20.23388672 C-28.26223051 22.5404958 -33.89563044 23.99099317 -40 25 C-40 24.34 -40 23.68 -40 23 C-38.44628906 21.85839844 -38.44628906 21.85839844 -36.265625 20.609375 C-35.07138916 19.92041138 -35.07138916 19.92041138 -33.85302734 19.2175293 C-32.99402832 18.73324463 -32.1350293 18.24895996 -31.25 17.75 C-30.38197754 17.25346924 -29.51395508 16.75693848 -28.61962891 16.24536133 C-23.03231667 13.07374913 -17.38574229 10.14198536 -11.6015625 7.34765625 C-7.51128558 5.22881911 -3.74802705 2.66904956 0 0 Z " fill="#987C47" transform="translate(255,247)"/>
<path d="M0 0 C0.33 0.66 0.66 1.32 1 2 C6.61 2 12.22 2 18 2 C18 1.34 18 0.68 18 0 C20.24940295 -0.08119503 22.49964871 -0.13927819 24.75 -0.1875 C26.00296875 -0.22230469 27.2559375 -0.25710937 28.546875 -0.29296875 C32.17273035 0.01465472 33.55081155 0.35871833 36 3 C36.75 6.6875 36.75 6.6875 37 10 C36.43611572 9.67475342 35.87223145 9.34950684 35.29125977 9.0144043 C32.76091986 7.89415258 31.0917165 7.75535923 28.33984375 7.76953125 C27.46392578 7.77146484 26.58800781 7.77339844 25.68554688 7.77539062 C24.77869141 7.78763672 23.87183594 7.79988281 22.9375 7.8125 C22.02677734 7.81314453 21.11605469 7.81378906 20.17773438 7.81445312 C15.00675652 7.83096094 15.00675652 7.83096094 10 9 C8.60560336 9.06665376 7.20830125 9.08538199 5.8125 9.0625 C3.9253125 9.0315625 3.9253125 9.0315625 2 9 C2 9.99 2 10.98 2 12 C0.35 12 -1.3 12 -3 12 C-3.66 10.68 -4.32 9.36 -5 8 C-4.34 8 -3.68 8 -3 8 C-3 7.34 -3 6.68 -3 6 C-3.66 5.67 -4.32 5.34 -5 5 C-4.01 5 -3.02 5 -2 5 C-2 3.68 -2 2.36 -2 1 C-1.34 0.67 -0.68 0.34 0 0 Z " fill="#D5A957" transform="translate(353,209)"/>
<path d="M0 0 C6.61003038 -0.36722391 11.76646789 0.87427937 18 3 C18.87011719 3.28617187 19.74023438 3.57234375 20.63671875 3.8671875 C22.76153968 4.56767792 24.88216878 5.27870966 27 6 C27 6.66 27 7.32 27 8 C31.455 8.99 31.455 8.99 36 10 C36 10.99 36 11.98 36 13 C35.34 13 34.68 13 34 13 C34 12.34 34 11.68 34 11 C33.01 11.33 32.02 11.66 31 12 C28.375 11.6875 28.375 11.6875 26 11 C25.67 10.34 25.34 9.68 25 9 C23.35 9 21.7 9 20 9 C20 9.66 20 10.32 20 11 C20 12.32 20 13.64 20 15 C16.14974121 14.39644592 13.13898841 13.23227397 9.6875 11.4375 C8.80449219 10.98246094 7.92148438 10.52742187 7.01171875 10.05859375 C6.34785156 9.70925781 5.68398437 9.35992187 5 9 C5 8.01 5 7.02 5 6 C3.68 6.33 2.36 6.66 1 7 C1 6.01 1 5.02 1 4 C0.34 4 -0.32 4 -1 4 C-0.67 2.68 -0.34 1.36 0 0 Z " fill="#CFB77B" transform="translate(127,121)"/>
<path d="M0 0 C-4.3355378 5.23254562 -9.70420594 7.61753365 -16 10 C-16.66 10 -17.32 10 -18 10 C-18 10.99 -18 11.98 -18 13 C-23.21095684 16.31606344 -28.29561251 18.16844314 -34.23046875 19.875 C-37.27066112 21.10994415 -38.85959196 22.54798124 -41 25 C-41.99 24.67 -42.98 24.34 -44 24 C-43.34 23.67 -42.68 23.34 -42 23 C-43.32 22.34 -44.64 21.68 -46 21 C-43.03 20.01 -40.06 19.02 -37 18 C-37 17.67 -37 17.34 -37 17 C-33.04 16.34 -29.08 15.68 -25 15 C-25 14.34 -25 13.68 -25 13 C-25.99 12.67 -26.98 12.34 -28 12 C-27.36191406 11.81824219 -26.72382813 11.63648438 -26.06640625 11.44921875 C-25.24011719 11.19785156 -24.41382813 10.94648438 -23.5625 10.6875 C-22.73878906 10.44386719 -21.91507812 10.20023438 -21.06640625 9.94921875 C-20.38449219 9.63597656 -19.70257813 9.32273438 -19 9 C-18.67 8.01 -18.34 7.02 -18 6 C-16.68 6 -15.36 6 -14 6 C-16.31 5.34 -18.62 4.68 -21 4 C-17.74191457 2.14046922 -14.75537475 1.46176194 -11.0625 0.875 C-10.04285156 0.70742187 -9.02320313 0.53984375 -7.97265625 0.3671875 C-5.27407618 0.03385435 -2.71461065 -0.06998996 0 0 Z " fill="#827550" transform="translate(495,144)"/>
<path d="M0 0 C5.93002267 -0.37851209 10.47239641 0.89424625 16 3 C15.01 3.66 14.02 4.32 13 5 C12.67 5.99 12.34 6.98 12 8 C12.66 8 13.32 8 14 8 C14 8.99 14 9.98 14 11 C15.32 10.67 16.64 10.34 18 10 C18.33 10.99 18.66 11.98 19 13 C21.54951047 14.46840117 21.54951047 14.46840117 24.5625 15.6875 C25.57441406 16.12449219 26.58632812 16.56148437 27.62890625 17.01171875 C28.41136719 17.33785156 29.19382813 17.66398437 30 18 C28.68 18.33 27.36 18.66 26 19 C26.33 20.32 26.66 21.64 27 23 C22.40004237 21.68572639 18.73569635 20.02413514 15 17 C15 15.68 15 14.36 15 13 C13.68 12.34 12.36 11.68 11 11 C11 10.34 11 9.68 11 9 C10.41734375 8.9071875 9.8346875 8.814375 9.234375 8.71875 C6.48455228 7.83419164 5.23900991 6.57401034 3.25 4.5 C2.63640625 3.8709375 2.0228125 3.241875 1.390625 2.59375 C0 1 0 1 0 0 Z " fill="#685A35" transform="translate(114,117)"/>
<path d="M0 0 C-0.55872803 0.30180176 -1.11745605 0.60360352 -1.69311523 0.91455078 C-4.27701846 2.3135761 -6.8572512 3.71924695 -9.4375 5.125 C-10.31599609 5.599375 -11.19449219 6.07375 -12.09960938 6.5625 C-17.31618679 9.41140575 -22.26260066 12.43246188 -27.09741211 15.89404297 C-29 17 -29 17 -32.125 17 C-33.07375 16.67 -34.0225 16.34 -35 16 C-36.29025425 15.64072188 -37.58196035 15.28662071 -38.875 14.9375 C-39.90625 14.628125 -40.9375 14.31875 -42 14 C-42 13.67 -42 13.34 -42 13 C-39.69 13 -37.38 13 -35 13 C-34.67 12.34 -34.34 11.68 -34 11 C-33.01 10.67 -32.02 10.34 -31 10 C-31 10.66 -31 11.32 -31 12 C-29.35 12 -27.7 12 -26 12 C-25.67 11.01 -25.34 10.02 -25 9 C-23.68 9.33 -22.36 9.66 -21 10 C-19.98459888 5.89776415 -19.98459888 5.89776415 -21 2 C-20.01 1.67 -19.02 1.34 -18 1 C-18 1.66 -18 2.32 -18 3 C-13.64080905 2.07083005 -9.32199098 1.13348138 -5.0625 -0.1875 C-2 -1 -2 -1 0 0 Z " fill="#BA9B58" transform="translate(389,191)"/>
<path d="M0 0 C-0.5 1.84765625 -0.5 1.84765625 -2 4 C-4.70796846 5.01246589 -7.20700433 5.76602544 -10 6.4375 C-11.62900005 6.85901265 -13.25790347 7.2808989 -14.88671875 7.703125 C-15.7276709 7.91517578 -16.56862305 8.12722656 -17.43505859 8.34570312 C-21.57678898 9.40222677 -25.69387889 10.54481297 -29.8125 11.6875 C-30.55822266 11.88980225 -31.30394531 12.09210449 -32.07226562 12.30053711 C-35.07596099 13.12531668 -37.98041461 13.99202176 -40.8671875 15.16796875 C-43.36399193 16.14199685 -44.52527872 15.91656344 -47 15 C-47 14.67 -47 14.34 -47 14 C-45.02 13.67 -43.04 13.34 -41 13 C-41 12.34 -41 11.68 -41 11 C-38.03 11 -35.06 11 -32 11 C-32.2784375 9.7934375 -32.2784375 9.7934375 -32.5625 8.5625 C-32.706875 7.716875 -32.85125 6.87125 -33 6 C-31.20571541 4.20571541 -28.55790044 4.5371203 -26.125 4.3125 C-25.05507813 4.20550781 -23.98515625 4.09851563 -22.8828125 3.98828125 C-20 4 -20 4 -17 6 C-13.85778033 5.68493373 -13.85778033 5.68493373 -11 5 C-10.67 4.01 -10.34 3.02 -10 2 C-10 2.66 -10 3.32 -10 4 C-9.34 3.67 -8.68 3.34 -8 3 C-8 2.34 -8 1.68 -8 1 C-5.07175348 0.02391783 -3.04386724 -0.08226668 0 0 Z " fill="#D8B061" transform="translate(437,173)"/>
<path d="M0 0 C-0.33 0.66 -0.66 1.32 -1 2 C-0.34 2.33 0.32 2.66 1 3 C1 3.66 1 4.32 1 5 C-2.89415248 6.0045486 -6.79023448 7.00119758 -10.68823242 7.99072266 C-12.01267286 8.32809996 -13.3365766 8.66759176 -14.65991211 9.00927734 C-16.56740492 9.50139471 -18.47704538 9.98516346 -20.38671875 10.46875 C-21.53358154 10.76201172 -22.68044434 11.05527344 -23.86206055 11.35742188 C-26.68986958 11.93649239 -29.12781286 12.13173012 -32 12 C-31 9 -31 9 -29.19335938 8.06445312 C-28.41798828 7.80599609 -27.64261719 7.54753906 -26.84375 7.28125 C-25.98523438 6.98863281 -25.12671875 6.69601563 -24.2421875 6.39453125 C-23.33726562 6.09933594 -22.43234375 5.80414063 -21.5 5.5 C-20.62601563 5.20480469 -19.75203125 4.90960938 -18.8515625 4.60546875 C-17.10143441 4.01603392 -15.34881303 3.4339492 -13.59375 2.859375 C-11.85826198 2.28436391 -10.12894183 1.69040704 -8.40625 1.078125 C-7.601875 0.79453125 -6.7975 0.5109375 -5.96875 0.21875 C-5.25138672 -0.03970703 -4.53402344 -0.29816406 -3.79492188 -0.56445312 C-2 -1 -2 -1 0 0 Z " fill="#90773E" transform="translate(220,247)"/>
<path d="M0 0 C2.97 0.495 2.97 0.495 6 1 C6 0.67 6 0.34 6 0 C7.65 0 9.3 0 11 0 C7.87097465 3.45271762 4.40934821 5.74867742 0.375 8 C-0.24238037 8.34740234 -0.85976074 8.69480469 -1.49584961 9.05273438 C-14.62518767 16.31106414 -14.62518767 16.31106414 -22 16 C-18.66666667 14.33333333 -15.33333333 12.66666667 -12 11 C-12 10.67 -12 10.34 -12 10 C-14.64 9.67 -17.28 9.34 -20 9 C-20 8.34 -20 7.68 -20 7 C-19.2265625 6.97421875 -18.453125 6.9484375 -17.65625 6.921875 C-10.73183653 6.54480298 -5.96474358 5.55590483 0 2 C0 1.34 0 0.68 0 0 Z " fill="#7E6639" transform="translate(340,224)"/>
<path d="M0 0 C0.66 0.66 1.32 1.32 2 2 C1.34 2 0.68 2 0 2 C0 2.66 0 3.32 0 4 C-3.96697886 5.80317221 -7.6822542 6.49202991 -12 7 C-12 7.66 -12 8.32 -12 9 C-12.845625 8.9175 -13.69125 8.835 -14.5625 8.75 C-19.03634062 9.07537023 -21.24893952 10.59932129 -25 13 C-25.33 12.34 -25.66 11.68 -26 11 C-25.195625 10.21625 -24.39125 9.4325 -23.5625 8.625 C-21.01309583 6.28017144 -21.01309583 6.28017144 -20 4 C-17.33688662 2.89802205 -14.72625967 1.91361287 -12 1 C-10.783125 0.5875 -9.56625 0.175 -8.3125 -0.25 C-4.99388957 -1.00138349 -3.19010995 -1.09375198 0 0 Z " fill="#D6A854" transform="translate(277,242)"/>
<path d="M0 0 C2.96175123 0.61277612 4.38058783 1.25372522 7 3 C5.68 3.99 4.36 4.98 3 6 C5.475 6.99 5.475 6.99 8 8 C5.44008376 10.01136276 2.95409701 11.62845496 0 13 C1.85625 13.6496875 1.85625 13.6496875 3.75 14.3125 C6.91596559 15.49131697 9.43121425 16.75231247 12 19 C6.78020872 19.1799928 2.92737019 18.97094808 -2 17 C-2 16.34 -2 15.68 -2 15 C-2.99 14.67 -3.98 14.34 -5 14 C-5 13.34 -5 12.68 -5 12 C-4.34 12 -3.68 12 -3 12 C-2.95101563 11.38511719 -2.90203125 10.77023438 -2.8515625 10.13671875 C-2.77679688 9.32847656 -2.70203125 8.52023438 -2.625 7.6875 C-2.52058594 6.48673828 -2.52058594 6.48673828 -2.4140625 5.26171875 C-2 3 -2 3 0 0 Z " fill="#9F854B" transform="translate(306,212)"/>
<path d="M0 0 C1.671549 0.30791692 3.33805547 0.64386903 5 1 C5.99 1 6.98 1 8 1 C7.01 2.485 7.01 2.485 6 4 C6.66 4.33 7.32 4.66 8 5 C4.7 5 1.4 5 -2 5 C-2 5.66 -2 6.32 -2 7 C-3.04800781 7.30744141 -3.04800781 7.30744141 -4.1171875 7.62109375 C-5.02726563 7.89050781 -5.93734375 8.15992188 -6.875 8.4375 C-7.77992188 8.70433594 -8.68484375 8.97117188 -9.6171875 9.24609375 C-11.98275381 9.92613826 -11.98275381 9.92613826 -14 11 C-14 10.34 -14 9.68 -14 9 C-14.99 8.67 -15.98 8.34 -17 8 C-16.04271361 5.38921895 -15.37837568 4.21785266 -12.9375 2.8125 C-9.58381197 1.88488416 -6.35217739 1.52691505 -2.890625 1.24609375 C-0.99096139 1.19426832 -0.99096139 1.19426832 0 0 Z " fill="#D6AC5B" transform="translate(235,241)"/>
<path d="M0 0 C-0.309375 0.53625 -0.61875 1.0725 -0.9375 1.625 C-2.3427092 4.49767085 -2.3427092 4.49767085 -3 10 C-7.62 9.34 -12.24 8.68 -17 8 C-16.67 6.02 -16.34 4.04 -16 2 C-10.20377279 -0.32637691 -6.13909603 -1.43680971 0 0 Z " fill="#D6AA57" transform="translate(263,235)"/>
<path d="M0 0 C0.66 0.66 1.32 1.32 2 2 C0 4 0 4 -3.8125 4.0625 C-4.88951172 4.03349609 -4.88951172 4.03349609 -5.98828125 4.00390625 C-8.09614145 3.93341971 -8.09614145 3.93341971 -10.5 4.5 C-14.03226451 5.2064529 -17.40023696 5.06101293 -21 5 C-21.33 5.99 -21.66 6.98 -22 8 C-23.08667969 8.18175781 -23.08667969 8.18175781 -24.1953125 8.3671875 C-29.28497573 9.24939579 -34.14883346 10.16442347 -39 12 C-33.52059639 5.5481425 -22.58948129 3.73662769 -14.625 1.6875 C-13.97184814 1.51613525 -13.31869629 1.34477051 -12.64575195 1.16821289 C-8.35886605 0.12062253 -4.40529733 -0.32247214 0 0 Z " fill="#AB9366" transform="translate(415,160)"/>
<path d="M0 0 C4.19469571 0.59924224 8.00999834 1.57499941 12 3 C11.979375 3.9075 11.95875 4.815 11.9375 5.75 C11.88181489 9.16146622 11.88181489 9.16146622 13 13 C10.36 11.68 7.72 10.36 5 9 C5 8.01 5 7.02 5 6 C3.68 6.33 2.36 6.66 1 7 C1 6.01 1 5.02 1 4 C0.34 4 -0.32 4 -1 4 C-0.67 2.68 -0.34 1.36 0 0 Z " fill="#E8D194" transform="translate(127,121)"/>
<path d="M0 0 C1.98 0 3.96 0 6 0 C6.21914063 0.56589844 6.43828125 1.13179687 6.6640625 1.71484375 C7.63742679 3.96624327 8.60598538 5.97931826 10 8 C13.6836616 9.27800504 15.31053944 9.22982019 19 8 C19.66 8.66 20.32 9.32 21 10 C20.70700977 11.67422986 20.37309899 13.34178227 20 15 C20.33 15.66 20.66 16.32 21 17 C20.34 17 19.68 17 19 17 C18.67 17.66 18.34 18.32 18 19 C18 17.68 18 16.36 18 15 C16.68 14.67 15.36 14.34 14 14 C14 13.34 14 12.68 14 12 C13.41347656 11.90589844 12.82695312 11.81179687 12.22265625 11.71484375 C9.50719896 10.84150687 8.36815811 9.64000906 6.4375 7.5625 C4.32113693 5.30473183 2.60981215 3.73987477 0 2 C0 1.34 0 0.68 0 0 Z " fill="#D8AC58" transform="translate(251,200)"/>
<path d="M0 0 C2.64 0 5.28 0 8 0 C8 0.66 8 1.32 8 2 C8.66 2 9.32 2 10 2 C10 2.66 10 3.32 10 4 C6.04 4 2.08 4 -2 4 C-2.66 5.98 -3.32 7.96 -4 10 C-5.65 10 -7.3 10 -9 10 C-9.33 10.66 -9.66 11.32 -10 12 C-11 11 -11 11 -11.4375 8.6875 C-11 6 -11 6 -8.3125 3.6875 C-5.09055863 2.04613364 -3.52334488 1.58548884 0 2 C0 1.34 0 0.68 0 0 Z " fill="#D1A652" transform="translate(315,202)"/>
<path d="M0 0 C-0.33 0.66 -0.66 1.32 -1 2 C-3.5625 2.625 -3.5625 2.625 -6 3 C-5.34 3.33 -4.68 3.66 -4 4 C-12.5202264 7.74213418 -12.5202264 7.74213418 -17 6 C-19.3125 4.4375 -19.3125 4.4375 -21 3 C-17.21812119 1.16308743 -15.05431692 0.84162374 -11 2 C-11 1.34 -11 0.68 -11 0 C-6.94952424 -1.35015859 -4.2079832 -0.62084998 0 0 Z " fill="#E0BE79" transform="translate(482,149)"/>
<path d="M0 0 C2.24940295 -0.08119503 4.49964871 -0.13927819 6.75 -0.1875 C8.00296875 -0.22230469 9.2559375 -0.25710937 10.546875 -0.29296875 C14.17273035 0.01465472 15.55081155 0.35871833 18 3 C18.75 6.6875 18.75 6.6875 19 10 C18.48953125 9.68289062 17.9790625 9.36578125 17.453125 9.0390625 C14.19785341 7.66023727 11.27156868 7.5706427 7.75 7.375 C6.48671875 7.30023438 5.2234375 7.22546875 3.921875 7.1484375 C2.95765625 7.09945312 1.9934375 7.05046875 1 7 C1.639375 6.690625 2.27875 6.38125 2.9375 6.0625 C4.93610821 5.1654837 4.93610821 5.1654837 6 4 C8.32817964 3.63239269 10.6618385 3.29758419 13 3 C13 2.34 13 1.68 13 1 C8.71 1 4.42 1 0 1 C0 0.67 0 0.34 0 0 Z " fill="#7D6B3C" transform="translate(371,209)"/>
<path d="M0 0 C5.93002267 -0.37851209 10.47239641 0.89424625 16 3 C15.01 3.66 14.02 4.32 13 5 C12.67 5.99 12.34 6.98 12 8 C12.66 8 13.32 8 14 8 C14 8.66 14 9.32 14 10 C13.01 10.33 12.02 10.66 11 11 C11 10.34 11 9.68 11 9 C10.41734375 8.9071875 9.8346875 8.814375 9.234375 8.71875 C6.48455228 7.83419164 5.23900991 6.57401034 3.25 4.5 C2.63640625 3.8709375 2.0228125 3.241875 1.390625 2.59375 C0 1 0 1 0 0 Z " fill="#D7C28D" transform="translate(114,117)"/>
<path d="M0 0 C-6.39669421 6.75206612 -6.39669421 6.75206612 -11.625 7.25 C-14 7 -14 7 -16 5 C-18.57061311 4.35232207 -18.57061311 4.35232207 -21 4 C-17.74191457 2.14046922 -14.75537475 1.46176194 -11.0625 0.875 C-10.04285156 0.70742187 -9.02320313 0.53984375 -7.97265625 0.3671875 C-5.27407618 0.03385435 -2.71461065 -0.06998996 0 0 Z " fill="#A99463" transform="translate(495,144)"/>
<path d="M0 0 C0 0.66 0 1.32 0 2 C3.3 1.34 6.6 0.68 10 0 C2.88179812 5.33865141 -5.10449174 8.4867976 -14 9 C-14 8.34 -14 7.68 -14 7 C-11.4453125 5.2734375 -11.4453125 5.2734375 -8.125 3.375 C-7.03445312 2.74335938 -5.94390625 2.11171875 -4.8203125 1.4609375 C-2 0 -2 0 0 0 Z " fill="#77653C" transform="translate(229,263)"/>
<path d="M0 0 C-3.58071641 2.18138808 -6.81985512 2.42500241 -10.9609375 2.74609375 C-12.33334989 2.86243512 -13.70574521 2.97897788 -15.078125 3.09570312 C-17.22594189 3.26855825 -19.373979 3.43742188 -21.52246094 3.60180664 C-23.60713434 3.76435754 -25.69012779 3.94201847 -27.7734375 4.12109375 C-29.63621338 4.26695923 -29.63621338 4.26695923 -31.53662109 4.41577148 C-35.18156584 5.03062788 -37.7268763 6.34591295 -41 8 C-41.99 7.67 -42.98 7.34 -44 7 C-42.68 6.67 -41.36 6.34 -40 6 C-40 5.34 -40 4.68 -40 4 C-36.71348145 1.80898763 -35.57098416 1.72338248 -31.73828125 1.62109375 C-30.70123047 1.58693359 -29.66417969 1.55277344 -28.59570312 1.51757812 C-26.97051758 1.47793945 -26.97051758 1.47793945 -25.3125 1.4375 C-16.91538713 1.19845439 -8.35155935 -0.26098623 0 0 Z " fill="#77653B" transform="translate(317,240)"/>
<path d="M0 0 C2.475 0.495 2.475 0.495 5 1 C2.34931655 3.94520383 -0.52766764 6.09362145 -4 8 C-6.9375 7.875 -6.9375 7.875 -10 7 C-10.63808594 6.82597656 -11.27617187 6.65195313 -11.93359375 6.47265625 C-13.62905671 6.00529523 -15.3154722 5.50535834 -17 5 C-17 4.67 -17 4.34 -17 4 C-14.69 4 -12.38 4 -10 4 C-9.67 3.34 -9.34 2.68 -9 2 C-8.01 1.67 -7.02 1.34 -6 1 C-6 1.66 -6 2.32 -6 3 C-4.35 3 -2.7 3 -1 3 C-0.67 2.01 -0.34 1.02 0 0 Z " fill="#9F8249" transform="translate(364,200)"/>
<path d="M0 0 C0.99 0.66 1.98 1.32 3 2 C1.02 2 -0.96 2 -3 2 C-3.0825 2.61875 -3.165 3.2375 -3.25 3.875 C-4 6 -4 6 -6.0625 7.25 C-7.0215625 7.62125 -7.0215625 7.62125 -8 8 C-8 8.99 -8 9.98 -8 11 C-9.32 11.33 -10.64 11.66 -12 12 C-12.66 10.35 -13.32 8.7 -14 7 C-13.34 6.67 -12.68 6.34 -12 6 C-11.5359375 4.7625 -11.5359375 4.7625 -11.0625 3.5 C-10.711875 2.675 -10.36125 1.85 -10 1 C-6.47005387 -0.17664871 -3.70544587 -0.19850603 0 0 Z " fill="#6F5E40" transform="translate(323,205)"/>
<path d="M0 0 C1.45823212 -0.0270043 2.91660675 -0.04639787 4.375 -0.0625 C5.18710938 -0.07410156 5.99921875 -0.08570313 6.8359375 -0.09765625 C9 0 9 0 11 1 C11.625 3.5625 11.625 3.5625 12 6 C12.99 6.33 13.98 6.66 15 7 C15 7.33 15 7.66 15 8 C13.33388095 8.042721 11.66617115 8.04063832 10 8 C9.67 7.67 9.34 7.34 9 7 C7.865625 6.87625 6.73125 6.7525 5.5625 6.625 C4.386875 6.41875 3.21125 6.2125 2 6 C0 3 0 3 0 0 Z " fill="#D7BD81" transform="translate(140,136)"/>
<path d="M0 0 C0.763125 0.20625 1.52625 0.4125 2.3125 0.625 C-0.2125412 3.58389707 -2.94071087 4.82162795 -6.5 6.3125 C-8.02560547 6.96798828 -8.02560547 6.96798828 -9.58203125 7.63671875 C-12.80301027 8.66175987 -15.33079684 8.81064726 -18.6875 8.625 C-16.48706571 5.15063007 -14.68928939 3.6730877 -10.6875 2.625 C-7.875 3 -7.875 3 -5.6875 3.625 C-5.6875 2.965 -5.6875 2.305 -5.6875 1.625 C-2.6875 -0.375 -2.6875 -0.375 0 0 Z " fill="#AC8D53" transform="translate(270.6875,247.375)"/>
<path d="M0 0 C6.875 0.875 6.875 0.875 8 2 C10.34987262 2.23527773 12.70556039 2.41386417 15.0625 2.5625 C16.35285156 2.64628906 17.64320313 2.73007813 18.97265625 2.81640625 C20.47119141 2.90728516 20.47119141 2.90728516 22 3 C22 3.33 22 3.66 22 4 C19.60472566 4.22295635 17.20998659 4.42874063 14.8125 4.625 C13.80219727 4.72167969 13.80219727 4.72167969 12.77148438 4.8203125 C8.62909282 5.14362111 5.71694891 4.89095265 2 3 C2 4.32 2 5.64 2 7 C1.01 7.33 0.02 7.66 -1 8 C-1.66 8.66 -2.32 9.32 -3 10 C-3 7.69 -3 5.38 -3 3 C-2.01 2.67 -1.02 2.34 0 2 C0 1.34 0 0.68 0 0 Z " fill="#8A6E38" transform="translate(349,207)"/>
<path d="M0 0 C0.64066406 0.13277344 1.28132812 0.26554688 1.94140625 0.40234375 C5.88087989 1.20667741 9.75316722 1.97120284 13.75 2.4375 C17.28519833 3.04936125 19.88489066 4.25249964 23 6 C23 6.66 23 7.32 23 8 C21.02 8.66 19.04 9.32 17 10 C17 9.01 17 8.02 17 7 C16.01 7 15.02 7 14 7 C13.67 6.34 13.34 5.68 13 5 C12.154375 5.0825 11.30875 5.165 10.4375 5.25 C5.96365938 4.92462977 3.75106048 3.40067871 0 1 C0 0.67 0 0.34 0 0 Z " fill="#D4BF80" transform="translate(167,133)"/>
<path d="M0 0 C-4.42695105 3.89035092 -8.93354251 6.80426867 -14.9375 7.1875 C-15.618125 7.125625 -16.29875 7.06375 -17 7 C-15.36587557 5.29159719 -14.13093906 4.06546953 -12 3 C-11.67 2.01 -11.34 1.02 -11 0 C-6.94952424 -1.35015859 -4.2079832 -0.62084998 0 0 Z " fill="#B69653" transform="translate(455,166)"/>
<path d="M0 0 C2.97 0.495 2.97 0.495 6 1 C6 0.67 6 0.34 6 0 C7.65 0 9.3 0 11 0 C7.70393922 3.69158808 4.38972324 5.80513838 0 8 C-1.32 8 -2.64 8 -4 8 C-2.982983 4.94894899 -2.17353952 4.17353952 0 2 C0 1.34 0 0.68 0 0 Z " fill="#7D6741" transform="translate(340,224)"/>
<path d="M0 0 C0.66 0.33 1.32 0.66 2 1 C1.01 1.66 0.02 2.32 -1 3 C-1.33 3.99 -1.66 4.98 -2 6 C-2.66 6 -3.32 6 -4 6 C-3.67 7.32 -3.34 8.64 -3 10 C-0.03 10.495 -0.03 10.495 3 11 C2.34 11.66 1.68 12.32 1 13 C-1.3828125 12.9765625 -1.3828125 12.9765625 -4.125 12.625 C-5.03507812 12.51414063 -5.94515625 12.40328125 -6.8828125 12.2890625 C-7.58148438 12.19367188 -8.28015625 12.09828125 -9 12 C-8.58424938 7.14957612 -6.58340022 5.15680495 -3 2 C-2.01 1.34 -1.02 0.68 0 0 Z " fill="#A88950" transform="translate(343,192)"/>
<path d="M0 0 C0.763125 0.350625 1.52625 0.70125 2.3125 1.0625 C5.04759379 2.32360884 5.04759379 2.32360884 8 1 C8.33 2.65 8.66 4.3 9 6 C10.32 6.33 11.64 6.66 13 7 C12.67 7.33 12.34 7.66 12 8 C9.66253478 7.69699525 7.32914823 7.36141955 5 7 C4.01 7 3.02 7 2 7 C1.67 6.34 1.34 5.68 1 5 C0.01 4.67 -0.98 4.34 -2 4 C-1.34 2.68 -0.68 1.36 0 0 Z " fill="#E1C37F" transform="translate(183,159)"/>
<path d="M0 0 C9.33843667 1.32558317 18.07168464 4.06497036 27 7 C23.60699174 8.13626323 21.32624078 7.8241769 17.875 7 C14.33495184 5.98340052 14.33495184 5.98340052 11 7 C10.34 6.67 9.68 6.34 9 6 C9 5.01 9 4.02 9 3 C6.69 3 4.38 3 2 3 C2 2.34 2 1.68 2 1 C1.34 0.67 0.68 0.34 0 0 Z " fill="#85764F" transform="translate(154,128)"/>
<path d="M0 0 C-0.60546875 1.859375 -0.60546875 1.859375 -2 4 C-4.86328125 5.265625 -4.86328125 5.265625 -8.3125 6.25 C-9.44300781 6.58515625 -10.57351563 6.9203125 -11.73828125 7.265625 C-14.64000083 7.91894629 -17.04556619 8.15520478 -20 8 C-16.81237635 5.87491756 -14.73487777 5.4979837 -11 5 C-10.67 4.01 -10.34 3.02 -10 2 C-10 2.66 -10 3.32 -10 4 C-9.34 3.67 -8.68 3.34 -8 3 C-8 2.34 -8 1.68 -8 1 C-5.07175348 0.02391783 -3.04386724 -0.08226668 0 0 Z " fill="#7D6841" transform="translate(437,173)"/>
<path d="M0 0 C-0.99 0.495 -0.99 0.495 -2 1 C-1.34 1.66 -0.68 2.32 0 3 C-1.55966218 3.508783 -3.12289241 4.00663469 -4.6875 4.5 C-5.99267578 4.91765625 -5.99267578 4.91765625 -7.32421875 5.34375 C-9.99391677 5.99850805 -12.26396684 6.11831495 -15 6 C-14 3 -14 3 -11.6015625 1.796875 C-10.61929688 1.45140625 -9.63703125 1.1059375 -8.625 0.75 C-7.64789063 0.39421875 -6.67078125 0.0384375 -5.6640625 -0.328125 C-3 -1 -3 -1 0 0 Z " fill="#66563E" transform="translate(203,253)"/>
<path d="M0 0 C0.33 0.66 0.66 1.32 1 2 C0.34 2 -0.32 2 -1 2 C-1 2.66 -1 3.32 -1 4 C-1.99 4 -2.98 4 -4 4 C-4.2784375 4.8971875 -4.2784375 4.8971875 -4.5625 5.8125 C-6.66566597 9.01296996 -9.51866668 9.60746667 -13 11 C-13.33 11.66 -13.66 12.32 -14 13 C-15.32 12.67 -16.64 12.34 -18 12 C-12.10565514 7.80873429 -6.17198107 3.77176621 0 0 Z " fill="#877043" transform="translate(363,179)"/>
<path d="M0 0 C4.571279 0.54855348 8.67435795 1.41744803 13 3 C13 3.66 13 4.32 13 5 C13.66 5.33 14.32 5.66 15 6 C12.61426621 7.89213369 10.92824652 9.02391783 8 10 C6.66667905 7.3333581 7.32897967 5.83319697 8 3 C5.36 2.34 2.72 1.68 0 1 C0 0.67 0 0.34 0 0 Z " fill="#B7A36A" transform="translate(131,121)"/>
<path d="M0 0 C1.98 0 3.96 0 6 0 C6.84114171 1.43294498 7.67265687 2.87154405 8.5 4.3125 C8.9640625 5.11300781 9.428125 5.91351563 9.90625 6.73828125 C11 9 11 9 11 12 C10.45730469 11.44570312 9.91460937 10.89140625 9.35546875 10.3203125 C8.64003906 9.59585938 7.92460937 8.87140625 7.1875 8.125 C6.12595703 7.04605469 6.12595703 7.04605469 5.04296875 5.9453125 C2.95600806 3.84641063 2.95600806 3.84641063 0 2 C0 1.34 0 0.68 0 0 Z " fill="#978051" transform="translate(251,200)"/>
<path d="M0 0 C-2.22189824 2.22189824 -4.08482708 2.92598892 -7 4 C-7 4.66 -7 5.32 -7 6 C-7.99 6.33 -8.98 6.66 -10 7 C-10 6.01 -10 5.02 -10 4 C-10.66 4 -11.32 4 -12 4 C-12 4.66 -12 5.32 -12 6 C-13.32 6.33 -14.64 6.66 -16 7 C-15 4 -15 4 -12.890625 2.83203125 C-12.01921875 2.49558594 -11.1478125 2.15914062 -10.25 1.8125 C-9.38890625 1.46832031 -8.5278125 1.12414062 -7.640625 0.76953125 C-4.95129902 -0.01419245 -2.78398044 -0.14520761 0 0 Z " fill="#DFB972" transform="translate(391,168)"/>
<path d="M0 0 C-0.66 0 -1.32 0 -2 0 C-2.33 0.99 -2.66 1.98 -3 3 C-4.08667969 3.18175781 -4.08667969 3.18175781 -5.1953125 3.3671875 C-10.28497573 4.24939579 -15.14883346 5.16442347 -20 7 C-17.37739925 3.82674642 -14.35249579 2.71265445 -10.5625 1.25 C-9.42941406 0.80140625 -8.29632813 0.3528125 -7.12890625 -0.109375 C-4.10898801 -0.9689772 -2.85271145 -1.14949552 0 0 Z " fill="#847443" transform="translate(396,165)"/>
<path d="M0 0 C2.88437779 1.29299694 4.87219421 2.65941363 7 5 C6.67 5.66 6.34 6.32 6 7 C1.545 6.01 1.545 6.01 -3 5 C-2.01 3.35 -1.02 1.7 0 0 Z " fill="#BE9B57" transform="translate(253,238)"/>
<path d="M0 0 C0.66 0.33 1.32 0.66 2 1 C3.49547611 1.51337239 4.99613964 2.01173365 6.5 2.5 C8.76551021 3.23555526 10.8691593 3.93457965 13 5 C13 5.66 13 6.32 13 7 C15.475 7.495 15.475 7.495 18 8 C14.78249481 9.07980476 13.17877268 8.97733906 10.109375 7.56640625 C9.40039062 7.24736328 8.69140625 6.92832031 7.9609375 6.59960938 C7.23132813 6.25736328 6.50171875 5.91511719 5.75 5.5625 C5.00492188 5.22412109 4.25984375 4.88574219 3.4921875 4.53710938 C1.65672135 3.70173696 -0.17229555 2.85222033 -2 2 C-1.34 1.34 -0.68 0.68 0 0 Z " fill="#746443" transform="translate(187,164)"/>
<path d="M0 0 C3.90096055 0.56816832 6.53869634 1.69246423 9.8125 3.875 C10.60269531 4.38804687 11.39289063 4.90109375 12.20703125 5.4296875 C12.79871094 5.94789063 13.39039063 6.46609375 14 7 C14 7.99 14 8.98 14 10 C13.154375 9.195625 12.30875 8.39125 11.4375 7.5625 C8.1484842 4.78371338 5.31370396 4.25882224 1 4 C0.67 2.68 0.34 1.36 0 0 Z " fill="#9D8858" transform="translate(248,156)"/>
<path d="M0 0 C4.82360189 -0.19294408 8.49646738 0.24252386 13 2 C12.401875 2.144375 11.80375 2.28875 11.1875 2.4375 C9.43849596 2.8872439 7.71322977 3.42892341 6 4 C7.65 5.65 9.3 7.3 11 9 C7.40303663 8.42703238 5.74677205 7.10347171 3.25 4.5 C2.63640625 3.8709375 2.0228125 3.241875 1.390625 2.59375 C0 1 0 1 0 0 Z " fill="#706645" transform="translate(114,117)"/>
<path d="M0 0 C-0.33 1.32 -0.66 2.64 -1 4 C-1.67546875 3.91621094 -2.3509375 3.83242187 -3.046875 3.74609375 C-3.93890625 3.64425781 -4.8309375 3.54242188 -5.75 3.4375 C-6.63171875 3.33308594 -7.5134375 3.22867188 -8.421875 3.12109375 C-10.88432451 3.00543324 -12.66538064 3.26361305 -15 4 C-15.33 3.01 -15.66 2.02 -16 1 C-13.8973294 0.63705686 -11.79278943 0.28493028 -9.6875 -0.0625 C-8.51574219 -0.25972656 -7.34398437 -0.45695313 -6.13671875 -0.66015625 C-3 -1 -3 -1 0 0 Z " fill="#E4BB6E" transform="translate(410,164)"/>
<path d="M0 0 C-0.99 0 -1.98 0 -3 0 C-3 0.66 -3 1.32 -3 2 C-4.65 1.67 -6.3 1.34 -8 1 C-8.33 1.66 -8.66 2.32 -9 3 C-10.77734375 3.484375 -10.77734375 3.484375 -12.9375 3.75 C-13.64777344 3.84796875 -14.35804688 3.9459375 -15.08984375 4.046875 C-17 4 -17 4 -19 2 C-5.72727273 -2.14772727 -5.72727273 -2.14772727 0 0 Z " fill="#8C754F" transform="translate(474,149)"/>
<path d="M0 0 C0.66 0 1.32 0 2 0 C2.33 0.66 2.66 1.32 3 2 C3.99 2.33 4.98 2.66 6 3 C5.67 7.95 5.34 12.9 5 18 C4.34 17.67 3.68 17.34 3 17 C2.65625 14.19921875 2.65625 14.19921875 2.5 10.6875 C2.31666886 6.59463222 2.1630461 3.53239384 0 0 Z " fill="#806933" transform="translate(263,212)"/>
<path d="M0 0 C2.96175123 0.61277612 4.38058783 1.25372522 7 3 C4.75 5.0625 4.75 5.0625 2 7 C-0.3125 6.75 -0.3125 6.75 -2 6 C-1.49396008 3.83125748 -1.00016187 2.00032373 0 0 Z " fill="#AB8D51" transform="translate(306,212)"/>
<path d="M0 0 C4.21775732 1.35525536 8.29421322 2.90200114 12.375 4.625 C13.96441406 5.29402344 13.96441406 5.29402344 15.5859375 5.9765625 C16.38257813 6.31429687 17.17921875 6.65203125 18 7 C18 7.33 18 7.66 18 8 C16.02 8.33 14.04 8.66 12 9 C11.67 8.34 11.34 7.68 11 7 C10.0925 6.9175 9.185 6.835 8.25 6.75 C3.72128624 5.70491221 2.67921637 3.70362263 0 0 Z " fill="#6F5B3C" transform="translate(296,192)"/>
<path d="M0 0 C3.66172475 0.62678171 6.8818995 1.64451846 10.3125 3.0625 C11.19550781 3.42472656 12.07851562 3.78695312 12.98828125 4.16015625 C13.65214844 4.43730469 14.31601563 4.71445313 15 5 C15 5.33 15 5.66 15 6 C11.33333333 6 7.66666667 6 4 6 C3.71125 5.38125 3.4225 4.7625 3.125 4.125 C2.06279958 1.86674235 2.06279958 1.86674235 0 0 Z " fill="#4D3F28" transform="translate(145,142)"/>
<path d="M0 0 C0 0.33 0 0.66 0 1 C-1.03640625 1.25394531 -2.0728125 1.50789062 -3.140625 1.76953125 C-4.51053993 2.11670147 -5.8803249 2.46438479 -7.25 2.8125 C-8.27287109 3.0609668 -8.27287109 3.0609668 -9.31640625 3.31445312 C-13.14704312 4.30000533 -16.04090166 5.3383368 -19 8 C-19.66 7.67 -20.32 7.34 -21 7 C-20.01 6.34 -19.02 5.68 -18 5 C-17.67 4.01 -17.34 3.02 -17 2 C-5.47835991 -0.29612756 -5.47835991 -0.29612756 0 0 Z " fill="#695632" transform="translate(372,216)"/>
<path d="M0 0 C-0.66 1.32 -1.32 2.64 -2 4 C-6.62 4 -11.24 4 -16 4 C-15 2 -15 2 -13.14453125 1.3671875 C-8.68502511 0.4259852 -4.58835504 -0.23530026 0 0 Z " fill="#E2BF79" transform="translate(450,154)"/>
<path d="M0 0 C2.64 0.33 5.28 0.66 8 1 C5.64046906 3.35953094 4.22104383 3.49141413 1 4 C1 4.99 1 5.98 1 7 C-2.3 7 -5.6 7 -9 7 C-6.01353231 5.00902154 -3.40312738 4.05875074 0 3 C0 2.01 0 1.02 0 0 Z " fill="#7D6C3A" transform="translate(476,150)"/>
<path d="M0 0 C5.03356296 1.23631371 10.02426068 2.5487427 15 4 C15 4.99 15 5.98 15 7 C14.34 7 13.68 7 13 7 C13 6.34 13 5.68 13 5 C12.01 5.33 11.02 5.66 10 6 C7.375 5.6875 7.375 5.6875 5 5 C4.67 4.34 4.34 3.68 4 3 C1.97536745 2.34786708 1.97536745 2.34786708 0 2 C0 1.34 0 0.68 0 0 Z " fill="#E9D091" transform="translate(148,127)"/>
<path d="M0 0 C0.495 0.37125 0.99 0.7425 1.5 1.125 C-5.78571429 4.55357143 -5.78571429 4.55357143 -10.5 4.125 C-10.5 3.135 -10.5 2.145 -10.5 1.125 C-3.11538462 -1.09038462 -3.11538462 -1.09038462 0 0 Z " fill="#C5A161" transform="translate(239.5,260.875)"/>
<path d="M0 0 C-3.75261982 3.57807937 -3.75261982 3.57807937 -6 5 C-8.5625 4.75 -8.5625 4.75 -11 4 C-13.72502965 4.37722015 -13.72502965 4.37722015 -16 5 C-11.82639458 1.18931679 -5.49060888 -1.83020296 0 0 Z " fill="#7A6338" transform="translate(246,238)"/>
<path d="M0 0 C4.71403788 0.47939368 8.66579301 0.96834048 13 3 C10.24921116 3.91692961 8.64051087 4.10886083 5.8125 4.0625 C3.9253125 4.0315625 3.9253125 4.0315625 2 4 C1.34 2.68 0.68 1.36 0 0 Z " fill="#948355" transform="translate(211,145)"/>
<path d="M0 0 C2.31 0 4.62 0 7 0 C6.67 0.99 6.34 1.98 6 3 C3.1875 4.3125 3.1875 4.3125 0 5 C-2.375 4.125 -2.375 4.125 -4 3 C-2.68 2.67 -1.36 2.34 0 2 C0 1.34 0 0.68 0 0 Z " fill="#B4965A" transform="translate(203,251)"/>
<path d="M0 0 C2.64 0.33 5.28 0.66 8 1 C7.34 1.66 6.68 2.32 6 3 C5.01 3 4.02 3 3 3 C3 5.64 3 8.28 3 11 C2.33333333 9.66666667 1.66666667 8.33333333 1 7 C0.608125 6.319375 0.21625 5.63875 -0.1875 4.9375 C-1 3 -1 3 0 0 Z " fill="#D2AC68" transform="translate(334,206)"/>
<path d="M0 0 C0.99 0 1.98 0 3 0 C3 0.66 3 1.32 3 2 C0.5 3.625 0.5 3.625 -2 5 C-0.68 5.33 0.64 5.66 2 6 C-0.31 6 -2.62 6 -5 6 C-5.33 5.01 -5.66 4.02 -6 3 C-6.66 2.67 -7.32 2.34 -8 2 C-5.36 2 -2.72 2 0 2 C0 1.34 0 0.68 0 0 Z " fill="#E4C884" transform="translate(164,147)"/>
<path d="M0 0 C10.55808656 1.92710706 10.55808656 1.92710706 15 4 C14.67 4.99 14.34 5.98 14 7 C13.67 6.34 13.34 5.68 13 5 C12.154375 5.0825 11.30875 5.165 10.4375 5.25 C5.96365938 4.92462977 3.75106048 3.40067871 0 1 C0 0.67 0 0.34 0 0 Z " fill="#E7D094" transform="translate(167,133)"/>
<path d="M0 0 C0.33 0.66 0.66 1.32 1 2 C0.67 2.99 0.34 3.98 0 5 C1.32 5 2.64 5 4 5 C4.33 4.34 4.66 3.68 5 3 C5.66 4.98 6.32 6.96 7 9 C0.25 7.25 0.25 7.25 -2 5 C-1.46428571 1.46428571 -1.46428571 1.46428571 0 0 Z " fill="#D0A755" transform="translate(340,217)"/>
<path d="M0 0 C-3.7522584 1.65684137 -7.26353061 2.50208163 -11.3125 3.125 C-12.38113281 3.29257813 -13.44976562 3.46015625 -14.55078125 3.6328125 C-15.35902344 3.75398437 -16.16726563 3.87515625 -17 4 C-16.67 3.01 -16.34 2.02 -16 1 C-14.0852312 0.63571223 -12.16807707 0.28394694 -10.25 -0.0625 C-9.18265625 -0.25972656 -8.1153125 -0.45695313 -7.015625 -0.66015625 C-4.25228095 -0.97156937 -2.59053383 -0.8991416 0 0 Z " fill="#CAA863" transform="translate(377,214)"/>
<path d="M0 0 C0.33 0.66 0.66 1.32 1 2 C2.65 2 4.3 2 6 2 C5.67 3.32 5.34 4.64 5 6 C2.6568787 5.74438677 0.32156597 5.40729228 -2 5 C-2.33 4.34 -2.66 3.68 -3 3 C-2.01 2.01 -1.02 1.02 0 0 Z " fill="#DFBF7E" transform="translate(171,152)"/>
<path d="M0 0 C0.86625 0.17144531 1.7325 0.34289062 2.625 0.51953125 C5 1.1875 5 1.1875 8 3.1875 C6.51886719 3.06181641 6.51886719 3.06181641 5.0078125 2.93359375 C3.72648438 2.83175781 2.44515625 2.72992188 1.125 2.625 C-0.15117187 2.52058594 -1.42734375 2.41617188 -2.7421875 2.30859375 C-5.88643942 1.93066633 -5.88643942 1.93066633 -8 3.1875 C-8 2.1975 -8 1.2075 -8 0.1875 C-4.68774566 -0.91658478 -3.3529277 -0.69353713 0 0 Z " fill="#E2C888" transform="translate(223,148.8125)"/>
<path d="M0 0 C0.33 0.66 0.66 1.32 1 2 C2.88764903 2.68472665 2.88764903 2.68472665 5.0625 3.125 C5.79597656 3.29257813 6.52945313 3.46015625 7.28515625 3.6328125 C7.85105469 3.75398437 8.41695312 3.87515625 9 4 C9 4.99 9 5.98 9 7 C4.78087253 6.5205537 2.20336822 5.83374881 -1 3 C-0.67 2.01 -0.34 1.02 0 0 Z " fill="#9F8F69" transform="translate(130,131)"/>
<path d="M0 0 C-0.33 0.99 -0.66 1.98 -1 3 C-2.84765625 3.73046875 -2.84765625 3.73046875 -5.0625 4.1875 C-5.79597656 4.34605469 -6.52945313 4.50460938 -7.28515625 4.66796875 C-8.13400391 4.83232422 -8.13400391 4.83232422 -9 5 C-9 4.01 -9 3.02 -9 2 C-5.86501708 0.14223235 -3.62528568 -0.20140476 0 0 Z " fill="#9C8250" transform="translate(230,243)"/>
<path d="M0 0 C-1.65 0.33 -3.3 0.66 -5 1 C-4.938125 1.763125 -4.87625 2.52625 -4.8125 3.3125 C-5 6 -5 6 -6.5 7.8125 C-6.995 8.204375 -7.49 8.59625 -8 9 C-8.66 7.02 -9.32 5.04 -10 3 C-8.68 2.67 -7.36 2.34 -6 2 C-6 1.34 -6 0.68 -6 0 C-3.50907189 -1.24546405 -2.58919267 -0.7767578 0 0 Z " fill="#AE8B4C" transform="translate(252,236)"/>
<path d="M0 0 C2.6875 -0.5 2.6875 -0.5 6 0 C8.08132026 2.45240837 9.55490096 5.1353789 11 8 C8.23156893 6.68315779 5.7422712 5.22149755 3.25 3.4375 C2.63640625 3.00308594 2.0228125 2.56867188 1.390625 2.12109375 C0.93171875 1.75113281 0.4728125 1.38117188 0 1 C0 0.67 0 0.34 0 0 Z " fill="#907D51" transform="translate(231,185)"/>
<path d="M0 0 C4.63708939 2.60836278 8.78744458 5.77002574 13 9 C11 10 11 10 8.625 9.375 C5.50503845 7.74073443 4.08281599 5.80102841 2 3 C1.34 2.67 0.68 2.34 0 2 C0 1.34 0 0.68 0 0 Z " fill="#7B6934" transform="translate(274,176)"/>
<path d="M0 0 C4.92127034 -0.16682272 8.50343896 -0.24828052 13 2 C13 2.99 13 3.98 13 5 C11.20620902 4.55005243 9.41501072 4.08975857 7.625 3.625 C6.62726563 3.36976563 5.62953125 3.11453125 4.6015625 2.8515625 C2 2 2 2 0 0 Z " fill="#8E7A4F" transform="translate(208,174)"/>
<path d="M0 0 C-1.29480889 2.42776667 -2.35838519 3.76967674 -4.98046875 4.7109375 C-6.9738726 5.19782198 -8.98658625 5.60391861 -11 6 C-11 5.34 -11 4.68 -11 4 C-9.35546875 2.67578125 -9.35546875 2.67578125 -7.1875 1.3125 C-6.47980469 0.85488281 -5.77210938 0.39726562 -5.04296875 -0.07421875 C-3 -1 -3 -1 0 0 Z " fill="#8D784D" transform="translate(376,173)"/>
<path d="M0 0 C1.02104551 0.97850195 2.0206121 1.97980427 3 3 C3 3.33 3 3.66 3 4 C1.948125 3.979375 0.89625 3.95875 -0.1875 3.9375 C-3.32704904 3.98896802 -5.96883396 4.26517187 -9 5 C-6.42595029 1.13892543 -4.38979741 1.05680308 0 0 Z " fill="#A7874D" transform="translate(241,257)"/>
<path d="M0 0 C2.97851562 0.1953125 2.97851562 0.1953125 5.95703125 0.390625 C5.95703125 1.050625 5.95703125 1.710625 5.95703125 2.390625 C6.61703125 2.390625 7.27703125 2.390625 7.95703125 2.390625 C7.95703125 3.050625 7.95703125 3.710625 7.95703125 4.390625 C3.66703125 4.390625 -0.62296875 4.390625 -5.04296875 4.390625 C-2.04296875 0.390625 -2.04296875 0.390625 0 0 Z " fill="#D1AF67" transform="translate(317.04296875,201.609375)"/>
<path d="M0 0 C3.3 0 6.6 0 10 0 C10 0.33 10 0.66 10 1 C5.02638346 2.75734451 0.2584002 4.32584613 -5 5 C-5.33 4.34 -5.66 3.68 -6 3 C-4.02 2.67 -2.04 2.34 0 2 C0 1.34 0 0.68 0 0 Z " fill="#8A774C" transform="translate(396,184)"/>
<path d="M0 0 C3.63 0.66 7.26 1.32 11 2 C10.01 2.66 9.02 3.32 8 4 C8.33 4.66 8.66 5.32 9 6 C5.625 5.25 5.625 5.25 2 4 C1.34 2.68 0.68 1.36 0 0 Z " fill="#6E5F3B" transform="translate(170,157)"/>
<path d="M0 0 C-1.65 1.65 -3.3 3.3 -5 5 C-7.49361571 3.79618552 -9.68143083 2.54571278 -12 1 C-7.95858806 0.36605303 -4.0934693 -0.12404452 0 0 Z " fill="#776748" transform="translate(495,144)"/>
<path d="M0 0 C0.33 0.99 0.66 1.98 1 3 C1.99 2.67 2.98 2.34 4 2 C6.6875 2.4375 6.6875 2.4375 9 3 C6.33440687 4.77706209 3.9719385 5.87548273 1 7 C1 6.34 1 5.68 1 5 C0.01 4.67 -0.98 4.34 -2 4 C-1.34 2.68 -0.68 1.36 0 0 Z " fill="#C8A66B" transform="translate(220,245)"/>
<path d="M0 0 C0.33 0 0.66 0 1 0 C1.33 1.65 1.66 3.3 2 5 C2.99 5.33 3.98 5.66 5 6 C5 6.33 5 6.66 5 7 C1.37471432 7.20140476 -0.86501708 6.85776765 -4 5 C-4 4.01 -4 3.02 -4 2 C-3.01 1.67 -2.02 1.34 -1 1 C-0.67 0.67 -0.34 0.34 0 0 Z " fill="#E9CE8C" transform="translate(150,137)"/>
<path d="M0 0 C1.98 0.66 3.96 1.32 6 2 C6 3.32 6 4.64 6 6 C4.35 5.67 2.7 5.34 1 5 C0.67 3.35 0.34 1.7 0 0 Z " fill="#ECD184" transform="translate(133,125)"/>
<path d="M0 0 C0.66 0 1.32 0 2 0 C2 1.65 2 3.3 2 5 C-0.31 6.32 -2.62 7.64 -5 9 C-5.33 8.34 -5.66 7.68 -6 7 C-5.195625 6.21625 -4.39125 5.4325 -3.5625 4.625 C-1.01309583 2.28017144 -1.01309583 2.28017144 0 0 Z " fill="#C89E4F" transform="translate(257,246)"/>
<path d="M0 0 C1.5 1.25 1.5 1.25 3 3 C3 4.32 3 5.64 3 7 C3.99 7.33 4.98 7.66 6 8 C6.33 9.98 6.66 11.96 7 14 C6.01 13.67 5.02 13.34 4 13 C2.83203125 10.56640625 2.83203125 10.56640625 1.8125 7.5625 C1.46832031 6.57378906 1.12414062 5.58507812 0.76953125 4.56640625 C0 2 0 2 0 0 Z " fill="#6A572B" transform="translate(333,210)"/>
<path d="M0 0 C1.23556641 0.01740234 1.23556641 0.01740234 2.49609375 0.03515625 C3.32238281 0.04417969 4.14867187 0.05320313 5 0.0625 C5.63808594 0.07410156 6.27617187 0.08570313 6.93359375 0.09765625 C4.05410228 2.33726072 1.16617349 4.39629849 -2.06640625 6.09765625 C-2.72640625 5.76765625 -3.38640625 5.43765625 -4.06640625 5.09765625 C-3.07640625 4.76765625 -2.08640625 4.43765625 -1.06640625 4.09765625 C-1.06640625 3.43765625 -1.06640625 2.77765625 -1.06640625 2.09765625 C-1.72640625 1.76765625 -2.38640625 1.43765625 -3.06640625 1.09765625 C-2.06640625 0.09765625 -2.06640625 0.09765625 0 0 Z " fill="#896F3D" transform="translate(373.06640625,194.90234375)"/>
<path d="M0 0 C1.95216435 1.95216435 2.84826645 3.53199953 4 6 C3.01 6.495 3.01 6.495 2 7 C-0.625 5.6875 -0.625 5.6875 -3 4 C-3 3.34 -3 2.68 -3 2 C-2.01 2 -1.02 2 0 2 C0 1.34 0 0.68 0 0 Z " fill="#DBBA73" transform="translate(228,177)"/>
<path d="M0 0 C2.31 0 4.62 0 7 0 C7.33 0.99 7.66 1.98 8 3 C5 3 2 3 -1 3 C-0.67 2.01 -0.34 1.02 0 0 Z " fill="#A78757" transform="translate(314,200)"/>
<path d="M0 0 C0.99 0.33 1.98 0.66 3 1 C2.360625 1.61875 1.72125 2.2375 1.0625 2.875 C-1.03883584 4.82597612 -1.03883584 4.82597612 -2 7 C-3.32 6.67 -4.64 6.34 -6 6 C-6 5.34 -6 4.68 -6 4 C-5.01 4 -4.02 4 -3 4 C-3 3.34 -3 2.68 -3 2 C-2.01 1.34 -1.02 0.68 0 0 Z " fill="#7B673E" transform="translate(336,196)"/>
<path d="M0 0 C3.33333333 2 6.66666667 4 10 6 C9.34 6.66 8.68 7.32 8 8 C1.23076923 4.55384615 1.23076923 4.55384615 0.0625 1.75 C0.041875 1.1725 0.02125 0.595 0 0 Z " fill="#D8C18B" transform="translate(256,161)"/>
<path d="M0 0 C-4.07156479 2.0357824 -6.51124928 3.12165065 -11.125 3.0625 C-12.03507812 3.05347656 -12.94515625 3.04445312 -13.8828125 3.03515625 C-14.58148438 3.02355469 -15.28015625 3.01195312 -16 3 C-16 2.67 -16 2.34 -16 2 C-10.54538831 0.61470179 -5.63281599 -0.2396943 0 0 Z " fill="#DFC07F" transform="translate(431,158)"/>
<path d="M0 0 C2.97 0.33 5.94 0.66 9 1 C8.34 1.66 7.68 2.32 7 3 C7.33 3.99 7.66 4.98 8 6 C4.64532525 4.82133049 2.28780716 3.76945078 0 1 C0 0.67 0 0.34 0 0 Z " fill="#B09F6A" transform="translate(151,147)"/>
<path d="M0 0 C1.53202706 0.25195908 3.05257128 0.57596777 4.5625 0.9375 C5.38878906 1.13214844 6.21507812 1.32679688 7.06640625 1.52734375 C8.02353516 1.76130859 8.02353516 1.76130859 9 2 C8.67 2.66 8.34 3.32 8 4 C6 4 4 4 2 4 C2 3.34 2 2.68 2 2 C1.01 1.67 0.02 1.34 -1 1 C-0.67 0.67 -0.34 0.34 0 0 Z " fill="#E7C887" transform="translate(235,153)"/>
<path d="M0 0 C0.99 0.33 1.98 0.66 3 1 C3 1.66 3 2.32 3 3 C2.34 3 1.68 3 1 3 C1 3.66 1 4.32 1 5 C-0.65 5.33 -2.3 5.66 -4 6 C-3.67 4.68 -3.34 3.36 -3 2 C-2.01 2 -1.02 2 0 2 C0 1.34 0 0.68 0 0 Z " fill="#DEC07A" transform="translate(454,151)"/>
<path d="M0 0 C2.97 0.33 5.94 0.66 9 1 C9 1.99 9 2.98 9 4 C5.65626525 3.44271087 2.96687001 2.64826111 0 1 C0 0.67 0 0.34 0 0 Z " fill="#928457" transform="translate(160,153)"/>
<path d="M0 0 C1.65 0.33 3.3 0.66 5 1 C2.64722731 3.72426311 0.37503669 4.8141763 -3 6 C-2.01 4.02 -1.02 2.04 0 0 Z " fill="#88703E" transform="translate(364,200)"/>
<path d="M0 0 C1.65 0 3.3 0 5 0 C5 0.66 5 1.32 5 2 C5.639375 2.28875 6.27875 2.5775 6.9375 2.875 C9 4 9 4 10 6 C8.5164999 5.57742724 7.03823576 5.13643678 5.5625 4.6875 C4.73878906 4.44386719 3.91507812 4.20023438 3.06640625 3.94921875 C2.04353516 3.47935547 2.04353516 3.47935547 1 3 C0.67 2.01 0.34 1.02 0 0 Z " fill="#9D8B5E" transform="translate(264,170)"/>
<path d="M0 0 C-0.33 1.32 -0.66 2.64 -1 4 C-2.65 4.33 -4.3 4.66 -6 5 C-5.34 4.34 -4.68 3.68 -4 3 C-5.32 2.34 -6.64 1.68 -8 1 C-5.10765685 0.17361624 -3.11257569 0 0 0 Z " fill="#46391A" transform="translate(457,164)"/>
<path d="M0 0 C0 0.99 0 1.98 0 3 C0.99 4.485 0.99 4.485 2 6 C-1.24208567 5.64950425 -2.61527704 5.43778819 -4.8125 2.9375 C-5.4003125 1.9784375 -5.4003125 1.9784375 -6 1 C-4.02 0.67 -2.04 0.34 0 0 Z " fill="#AC975C" transform="translate(182,159)"/>
<path d="M0 0 C-1.25125384 3.75376152 -2.5652404 4.24073289 -6 6 C-6.66 6 -7.32 6 -8 6 C-6.72879117 2.18637351 -4.19078006 0 0 0 Z " fill="#C19D68" transform="translate(344,226)"/>
<path d="M0 0 C0.99 0.33 1.98 0.66 3 1 C2.67 2.65 2.34 4.3 2 6 C1.01 6 0.02 6 -1 6 C-0.67 4.02 -0.34 2.04 0 0 Z " fill="#D8AF5E" transform="translate(309,206)"/>
<path d="M0 0 C6.625 -0.25 6.625 -0.25 10 2 C5.94568308 3.15837626 3.78187881 2.83691257 0 1 C0 0.67 0 0.34 0 0 Z " fill="#D9BE7E" transform="translate(206,172)"/>
<path d="M0 0 C1.65 0.33 3.3 0.66 5 1 C4.01 2.485 4.01 2.485 3 4 C1.68 3.67 0.36 3.34 -1 3 C-0.67 2.01 -0.34 1.02 0 0 Z " fill="#D6A94D" transform="translate(247,239)"/>
<path d="M0 0 C1.65 0 3.3 0 5 0 C5 1.32 5 2.64 5 4 C3.35 3.67 1.7 3.34 0 3 C0 2.01 0 1.02 0 0 Z " fill="#D8B161" transform="translate(309,200)"/>
<path d="M0 0 C2.9375 0.8125 2.9375 0.8125 6 2 C6.33 2.99 6.66 3.98 7 5 C7.66 5.33 8.32 5.66 9 6 C5 6 5 6 3.515625 4.6875 C2.34375 3.125 1.171875 1.5625 0 0 Z " fill="#8F7A4A" transform="translate(296,192)"/>
<path d="M0 0 C2.64 0 5.28 0 8 0 C4.81237635 2.12508244 2.73487777 2.5020163 -1 3 C-0.67 2.01 -0.34 1.02 0 0 Z " fill="#816D4A" transform="translate(408,181)"/>
<path d="M0 0 C2.31 0.33 4.62 0.66 7 1 C3.99382731 4.00617269 1.17618402 3.59585316 -3 4 C-2.505 3.525625 -2.01 3.05125 -1.5 2.5625 C0.11542197 1.24076302 0.11542197 1.24076302 0 0 Z " fill="#7E6E4A" transform="translate(441,169)"/>
<path d="M0 0 C-1.625 1.5625 -1.625 1.5625 -4 3 C-7.25 2.6875 -7.25 2.6875 -10 2 C-10 1.67 -10 1.34 -10 1 C-6.59437148 0.22157062 -3.49234244 -0.09978121 0 0 Z " fill="#CFB57A" transform="translate(455,166)"/>
<path d="M0 0 C2.875 -0.125 2.875 -0.125 6 0 C6.66 0.66 7.32 1.32 8 2 C7.34 2.66 6.68 3.32 6 4 C5.01 4 4.02 4 3 4 C3 3.34 3 2.68 3 2 C2.01 1.34 1.02 0.68 0 0 Z " fill="#BC9E59" transform="translate(409,160)"/>
</svg>
