<?xml version="1.0" standalone="no"?>
<!DOCTYPE svg PUBLIC "-//W3C//DTD SVG 20010904//EN"
 "http://www.w3.org/TR/2001/REC-SVG-20010904/DTD/svg10.dtd">
<svg version="1.0" xmlns="http://www.w3.org/2000/svg"
 width="300.000000pt" height="300.000000pt" viewBox="0 0 300.000000 300.000000"
 preserveAspectRatio="xMidYMid meet">
<metadata>
Created by potrace 1.10, written by Peter Selinger 2001-2011
</metadata>
<!-- White background for logo -->
<rect width="100%" height="100%" fill="#ffffff"/>
<g transform="translate(0.000000,300.000000) scale(0.050000,-0.050000)"
fill="#000000" stroke="none">
<path d="M2716 4890 c-1015 -257 -1980 -2120 -1208 -2333 104 -28 257 1 411
78 61 30 116 58 122 61 7 3 -1 -49 -17 -114 -67 -274 73 -472 332 -472 566 1
1600 1190 1466 1684 -64 234 -322 327 -567 203 -91 -46 -92 -37 -14 128 241
516 -18 893 -525 765z m376 -218 c67 -67 80 -110 69 -242 -13 -174 -254 -626
-383 -720 -130 -95 -358 -345 -483 -530 -343 -506 -889 -626 -883 -194 13 825
1275 2091 1680 1686z m514 -832 c368 -290 -918 -1772 -1345 -1550 -197 101
-73 516 256 860 96 101 228 248 293 326 257 313 639 487 796 364z"/>
<path d="M3630 2845 c-218 -71 -530 -467 -530 -671 0 -377 476 -273 766 167
218 330 86 610 -236 504z m159 -125 c202 -77 -231 -660 -473 -636 -197 19 58
492 334 619 96 43 77 41 139 17z"/>
<path d="M3943 1992 c-166 -171 -167 -155 31 -341 l147 -139 164 164 164 164
-149 150 c-183 184 -180 184 -357 2z"/>
</g>
</svg>
